<svg width="199" height="160" viewBox="0 0 199 160" fill="none" xmlns="http://www.w3.org/2000/svg">
<path d="M2.41455 61.0005C-2.55602 52.3912 0.393745 41.3826 9.00301 36.4121L67.8884 2.41455C76.4977 -2.55602 87.5063 0.393745 92.4769 9.00301L144.031 98.2969C149.001 106.906 146.052 117.915 137.442 122.885L78.5568 156.883C69.9476 161.853 58.939 158.904 53.9684 150.294L2.41455 61.0005Z" fill="#41C23E"/>
<path d="M142.669 149.143H180.649C190.59 149.143 198.649 141.084 198.649 131.143L198.649 28.0353C198.649 18.0942 190.59 10.0353 180.649 10.0353L122.553 10.0353C122.993 10.7095 123.417 11.3996 123.824 12.1051L165.875 84.9386C178.025 105.984 170.814 132.893 149.77 145.044L142.669 149.143Z" fill="#86FF84"/>
</svg>
