<svg width="240" height="240" viewBox="0 0 240 240" fill="none" xmlns="http://www.w3.org/2000/svg">
<path fill-rule="evenodd" clip-rule="evenodd" d="M108.75 21C114.083 19 119.25 19.25 124.25 21.75C129.25 24.25 132.75 28.1666 134.75 33.5L179.25 155.5C181.25 160.833 181.083 166.042 178.75 171.125C176.417 176.208 172.583 179.667 167.25 181.5L91.75 209C86.4167 211 81.25 210.75 76.25 208.25C71.25 205.75 67.75 201.833 65.75 196.5L21.25 74.5C19.25 69.1666 19.4167 63.9583 21.75 58.875C24.0833 53.7916 27.9167 50.3333 33.25 48.5L108.75 21ZM40.25 67.5L115.75 40L160.25 162.5L84.75 190L40.25 67.5Z" fill="#41C23E"/>
<path d="M160.25 20C165.75 20 170.458 21.9583 174.375 25.875C178.292 29.7917 180.25 34.5 180.25 40L180.25 100L153.75 26.5C153.25 25.3333 152.75 24.2083 152.25 23.125C151.75 22.0417 151.083 21 150.25 20L160.25 20Z" fill="#61CA5E"/>
<path d="M200.25 42L208.75 45.5C213.917 47.6667 217.375 51.4167 219.125 56.75C220.875 62.0833 220.583 67.3333 218.25 72.5L200.25 111.5L200.25 42Z" fill="#61CA5E"/>
</svg>
