<svg width="240" height="240" viewBox="0 0 240 240" fill="none" xmlns="http://www.w3.org/2000/svg">
<path d="M60 220V177C50.5 168.333 43.125 158.208 37.875 146.625C32.625 135.042 30 122.833 30 110C30 85 38.75 63.75 56.25 46.25C73.75 28.75 95 20 120 20C140.833 20 159.292 26.125 175.375 38.375C191.458 50.625 201.917 66.5833 206.75 86.25L219.75 137.5C220.583 140.667 220 143.542 218 146.125C216 148.708 213.333 150 210 150H190V180C190 185.5 188.042 190.208 184.125 194.125C180.208 198.042 175.5 200 170 200H150V220H130V180H170V130H197L187.5 91.25C183.667 76.0833 175.5 63.75 163 54.25C150.5 44.75 136.167 40 120 40C100.667 40 84.1667 46.75 70.5 60.25C56.8333 73.75 50 90.1667 50 109.5C50 119.5 52.0417 129 56.125 138C60.2083 147 66 155 73.5 162L80 168V220H60Z" fill="#41C23E"/>
<path d="M140 125H160V80H140V125Z" fill="#81EB7F"/>
<path d="M80 120H100V80H80V120Z" fill="#81EB7F"/>
<path d="M110 140H130V70H110V140Z" fill="#81EB7F"/>
</svg>
